<?xml version="1.0" encoding="UTF-8" standalone="no"?>
<svg
   xmlns:dc="http://purl.org/dc/elements/1.1/"
   xmlns:cc="http://creativecommons.org/ns#"
   xmlns:rdf="http://www.w3.org/1999/02/22-rdf-syntax-ns#"
   xmlns:svg="http://www.w3.org/2000/svg"
   xmlns="http://www.w3.org/2000/svg"
   xmlns:sodipodi="http://sodipodi.sourceforge.net/DTD/sodipodi-0.dtd"
   xmlns:inkscape="http://www.inkscape.org/namespaces/inkscape"
   inkscape:version="1.0 (4035a4fb49, 2020-05-01)"
   sodipodi:docname="Papiga3.svg"
   id="svg145"
   version="1.1"
   viewBox="0 0 272.38364 219.85476"
   height="219.85477pt"
   width="272.38364pt">
  <metadata
     id="metadata149">
    <rdf:RDF>
      <cc:Work
         rdf:about="">
        <dc:format>image/svg+xml</dc:format>
        <dc:type
           rdf:resource="http://purl.org/dc/dcmitype/StillImage" />
        <dc:title></dc:title>
      </cc:Work>
    </rdf:RDF>
  </metadata>
  <sodipodi:namedview
     inkscape:current-layer="svg145"
     inkscape:window-maximized="1"
     inkscape:window-y="-11"
     inkscape:window-x="-11"
     inkscape:cy="-7.1354505"
     inkscape:cx="50.012113"
     inkscape:zoom="1.0080645"
     inkscape:pagecheckerboard="true"
     fit-margin-bottom="0"
     fit-margin-right="0"
     fit-margin-left="0"
     fit-margin-top="0"
     showgrid="false"
     id="namedview147"
     inkscape:window-height="986"
     inkscape:window-width="1920"
     inkscape:pageshadow="2"
     inkscape:pageopacity="0"
     guidetolerance="10"
     gridtolerance="10"
     objecttolerance="10"
     borderopacity="1"
     bordercolor="#666666"
     pagecolor="#ffffff" />
  <defs
     id="defs2" />
  <path
     d="m 223.39187,59.029742 c -4.32756,7.3405 -7.24392,33.76841 -8.81364,32.19935 -24.89899,-24.88883 -52.07851,18.991708 -60.85717,21.261048 -8.12771,2.10167 -31.86108,-46.744018 -30.06887,-60.060808 1.52202,-11.30885 30.93436,-27.33743 41.51311,-29.81328 6.54477,-1.53169 16.60588,-1.46917 22.4823,3.34449 9.4369,9.24222 26.39743,19.18295 35.74427,33.0692 z"
     stroke-linejoin="bevel"
     stroke-linecap="square"
     stroke-width="0"
     stroke-opacity="0"
     stroke="#000000"
     fill-rule="evenodd"
     fill="#ffffff"
     id="shape0" />
  <path
     d="m 224.74491,70.250352 c -5.13036,3.74959 -49.54358,27.86609 -56.16,29.52001 -6.1253,1.531168 -34.59083,-27.74375 -21.95996,-46.44002 6.90749,-14.91342 14.83797,-19.13517 25.31858,-19.63089 4.93369,-1.11185 11.74464,-0.89135 16.2171,2.78328 11.81273,5.85521 31.653,19.67449 36.58428,33.76762 z"
     stroke-linejoin="bevel"
     stroke-linecap="square"
     stroke-width="0"
     stroke-opacity="0"
     stroke="#000000"
     fill-rule="evenodd"
     fill="#d9d9d9"
     id="shape01" />
  <path
     d="m 171.82482,94.730342 c -5.32923,1.61711 -19.93823,-22.97598 -18.35996,-31.67996 -0.0997,-12.79154 12.30313,-19.23133 19.23183,-21.16801 17.41759,-11.11524 93.26769,49.29375 -0.87187,52.84797 z"
     stroke-linejoin="bevel"
     stroke-linecap="square"
     stroke-width="0"
     stroke-opacity="0"
     stroke="#000000"
     fill-rule="evenodd"
     fill="#e6e6e6"
     id="shape011" />
  <path
     d="m 38.894075,185.81159 c -32.7821204,19.22991 -3.86431,49.57078 33.52371,23.31257 14.5864,-10.24424 25.96803,-26.03118 46.080995,-50.46257 2.89095,-3.51168 -69.191885,21.04185 -79.604705,27.15 z"
     stroke-linejoin="bevel"
     stroke-linecap="square"
     stroke-width="0.983579"
     stroke="#000000"
     fill-rule="evenodd"
     fill="#0b63e9"
     id="shape6" />
  <path
     d="m 36.142945,190.17961 c -16.81238,13.66509 0.45308,24.56417 13.77095,22.5996 29.38601,-5.0442 31.72438,-19.78048 63.025715,-46.96999 2.97235,-0.80076 -74.866855,22.23048 -76.796665,24.37039 z"
     stroke-linejoin="bevel"
     stroke-linecap="square"
     stroke-width="0"
     stroke-opacity="0"
     stroke="#000000"
     fill-rule="evenodd"
     fill="#0046aa"
     id="shape61" />
  <path
     d="m 89.942775,159.5314 c -36.90348,-7.49877 -74.42411,1.03307 -77.43494,6.05577 -12.5235904,20.89208 -3.9037704,35.148 10.70536,37.20707 11.24311,1.58506 28.67254,-5.80893 40.22802,-9.51921 2.31873,-0.74455 17.5638,-8.30186 29.48916,-16.24178 33.124215,-22.05395 21.543825,-11.15055 37.676085,-20.57914 5.98115,-3.49562 -32.480285,3.42695 -40.663685,3.07729 z"
     stroke-linejoin="bevel"
     stroke-linecap="square"
     stroke-width="0.983579"
     stroke="#000000"
     fill-rule="evenodd"
     fill="#0b63e9"
     id="shape5" />
  <path
     d="m 71.443015,183.09505 c -25.77661,13.07047 -40.13436,18.28123 -52.88448,13.56921 -16.2590504,-6.00882 -7.03288,-32.84345 9.34132,-25.95851 19.86058,8.35089 63.67783,-17.63942 81.354915,-7.67284 -11.268815,6.5969 -31.952325,18.11527 -37.811755,20.06214 z"
     stroke-linejoin="bevel"
     stroke-linecap="square"
     stroke-width="0"
     stroke-opacity="0"
     stroke="#000000"
     fill-rule="evenodd"
     fill="#0046aa"
     id="shape51" />
  <path
     d="M 114.05391,151.96585 C 96.302155,163.35786 56.297395,136.09274 43.707965,133.34878 0.9007346,124.0187 -6.3355754,165.07024 5.9202646,173.93589 c 9.7378604,11.54884 64.3472204,-1.61561 82.7222104,-8.95622 4.88694,-1.95237 27.198845,-10.26747 25.411435,-13.01382 z"
     stroke-linejoin="bevel"
     stroke-linecap="square"
     stroke-width="1.00351"
     stroke="#000000"
     fill-rule="evenodd"
     fill="#0b63e9"
     id="shape4" />
  <path
     d="M 96.143845,155.72774 C 84.612785,163.91028 50.947455,140.31947 48.980665,139.456 21.683385,127.47207 -0.3870054,161.22435 6.5855046,170.67435 20.410515,189.41195 97.428085,158.09798 96.143845,155.72774 Z"
     stroke-linejoin="bevel"
     stroke-linecap="square"
     stroke-width="0"
     stroke-opacity="0"
     stroke="#000000"
     fill-rule="evenodd"
     fill="#0046aa"
     id="shape41" />
  <path
     d="m 24.479335,143.78615 c -5.48815,4.69092 -9.46106,11.32192 -12.52649,7.47516 -1.10396,-2.18642 1.07457,-10.68678 13.31148,-13.80786 2.92689,-0.62928 18.75007,-0.96007 17.39975,0.95401 -0.50894,0.72147 -12.65671,0.56893 -18.18474,5.37869 z"
     stroke-linejoin="bevel"
     stroke-linecap="square"
     stroke-width="0"
     stroke-opacity="0"
     stroke="#000000"
     fill-rule="evenodd"
     fill="#ffffff"
     id="shape9" />
  <path
     d="m 95.384915,8.0903515 c 0,-0.08 0,-0.16 0,-0.24"
     stroke-linejoin="bevel"
     stroke-linecap="square"
     stroke-width="0.0432"
     stroke="#cc200a"
     fill-rule="evenodd"
     fill="#cc200a"
     id="shape1" />
  <path
     d="m 134.92367,145.96329 c -5.77758,-1.20505 -42.699945,38.5616 -55.133685,51.47321 -23.32209,24.21853 -44.27983,2.38756 -37.16776,-9.72879 7.00395,-11.9317 52.30856,-29.87975 60.623865,-27.36243 6.81757,2.06393 32.70143,-14.16843 31.67758,-14.38199 z"
     stroke-linejoin="bevel"
     stroke-linecap="square"
     stroke-width="0.983579"
     stroke="#000000"
     fill-rule="evenodd"
     fill="#d00000"
     id="shape411" />
  <path
     d="m 101.62325,167.63976 c -2.097065,6.84562 -33.519615,11.06231 -35.072855,11.41015 -21.55722,4.82809 -18.03908,23.45702 -9.1953,24.24466 8.90023,0.79278 14.33289,-1.71153 44.018195,-32.17819 2.93561,-3.0129 2.22012,-3.04827 0.24996,-3.47662 z"
     stroke-linejoin="bevel"
     stroke-linecap="square"
     stroke-width="0"
     stroke-opacity="0"
     stroke="#000000"
     fill-rule="evenodd"
     fill="#ff0000"
     id="shape412" />
  <path
     d="m 108.98903,162.13224 c -6.2307,-3.16461 -33.345515,9.42049 -34.849605,9.70538 -20.87477,3.95424 -19.61722,24.19962 -16.20956,27.46196 3.52716,3.37698 14.79571,-1.39745 27.77675,-14.78465 11.41638,-11.77347 24.876435,-21.57307 23.282415,-22.38269 z"
     stroke-linejoin="bevel"
     stroke-linecap="square"
     stroke-width="0"
     stroke-opacity="0"
     stroke="#000000"
     fill-rule="evenodd"
     fill="#7f0000"
     id="shape413" />
  <path
     d="m 120.81316,151.64023 c -7.56679,10.59796 -51.824665,9.84939 -54.249865,9.90706 -38.90497,0.92473 -46.84609,24.34913 -37.68605,32.51571 4.39938,3.92233 15.53113,11.86025 36.08597,-1.63786 12.09149,-7.94023 39.689345,-27.65442 48.213515,-29.62683 15.43989,-3.57266 10.12876,-9.84477 7.63643,-11.15808 z"
     stroke-linejoin="bevel"
     stroke-linecap="square"
     stroke-width="0.983579"
     stroke="#000000"
     fill-rule="evenodd"
     fill="#d00000"
     id="shape414" />
  <path
     d="m 98.534205,166.30839 c -4.7494,7.22318 -39.99922,3.36879 -41.79255,3.33713 -24.88954,-0.4389 -26.28058,21.06806 -16.6463,23.63728 9.48737,2.53008 13.92974,3.4566 56.90113,-23.08149 4.249565,-2.62434 3.494945,-2.86178 1.53772,-3.89292 z"
     stroke-linejoin="bevel"
     stroke-linecap="square"
     stroke-width="0"
     stroke-opacity="0"
     stroke="#000000"
     fill-rule="evenodd"
     fill="#ff0000"
     id="shape415" />
  <path
     d="m 109.90729,156.22329 c -4.97531,7.9232 -40.537415,8.26328 -42.350605,8.44794 -25.16424,2.56257 -30.1113,20.68345 -20.79844,23.01969 5.02214,1.25987 11.19971,6.07928 60.455665,-25.27593 4.36048,-3.18389 4.64844,-5.37933 2.69338,-6.1917 z"
     stroke-linejoin="bevel"
     stroke-linecap="square"
     stroke-width="0"
     stroke-opacity="0"
     stroke="#000000"
     fill-rule="evenodd"
     fill="#7f0000"
     id="shape416" />
  <path
     d="m 116.49418,154.56606 c -10.16646,7.90258 -53.374125,-9.78016 -55.664635,-10.4614 -31.78945,-9.45324 -42.14546,15.18453 -37.87357,23.01472 5.11633,9.37807 19.17281,12.00824 89.374435,-7.92994 6.94235,-1.97174 6.10428,-2.55617 4.16377,-4.62338 z"
     stroke-linejoin="bevel"
     stroke-linecap="square"
     stroke-width="0.983579"
     stroke="#000000"
     fill-rule="evenodd"
     fill="#d00000"
     id="shape417" />
  <path
     d="m 98.919145,158.49503 c -8.81851,6.24878 -36.1017,-11.71898 -37.59897,-12.44895 -20.78047,-10.13088 -37.6299,11.94239 -33.23398,20.33055 4.51426,8.61417 12.9387,8.95572 66.94545,-4.11797 5.340815,-1.29289 4.85965,-1.85103 3.8875,-3.76363 z"
     stroke-linejoin="bevel"
     stroke-linecap="square"
     stroke-width="0"
     stroke-opacity="0"
     stroke="#000000"
     fill-rule="evenodd"
     fill="#ff0000"
     id="shape418" />
  <path
     d="m 108.94908,154.68717 c -7.68821,5.78914 -40.222115,-5.60158 -41.947485,-6.02552 -14.38125,-3.71771 -25.89346,-0.46174 -28.39403,5.65495 -1.56949,3.83924 -2.95382,9.53574 2.08181,12.68339 4.7516,2.97019 12.11383,6.6939 65.107105,-8.96819 5.24059,-1.54886 4.61022,-1.9393 3.1526,-3.34463 z"
     stroke-linejoin="bevel"
     stroke-linecap="square"
     stroke-width="0"
     stroke-opacity="0"
     stroke="#000000"
     fill-rule="evenodd"
     fill="#7f0000"
     id="shape419" />
  <path
     style="stroke-width:1.02148"
     d="m 214.01811,131.42914 c 4.25892,4.85909 21.28707,3.80439 21.31915,4.13024 2.40512,24.49242 -37.53984,14.1555 -33.1932,7.43196 1.71793,-1.25044 2.20156,-9.77489 1.9392,-12.76459 1.48026,2.12853 5.93597,3.41479 9.93485,1.20239 z"
     fill-rule="evenodd"
     fill="#fff400"
     id="path24" />
  <path
     style="stroke-width:0.987164"
     d="m 195.90697,138.94899 c 3.76102,6.74651 21.57801,13.30936 21.54584,13.64963 -2.42137,25.57876 -43.55979,-2.51762 -37.2796,-7.32593 2.18801,-0.49208 4.51205,-8.8108 4.84261,-11.91927 1.21533,2.78493 5.94384,6.04222 10.89115,5.59557 z"
     fill-rule="evenodd"
     fill="#fff400"
     id="shape511" />
  <path
     d="m 231.45731,110.64236 c 11.56145,2.0222 17.07144,-6.15417 20.05127,-2.28776 16.09757,20.88725 -40.35028,37.25536 -39.17702,27.56464 0.65851,-4.68759 15.54338,-20.14716 19.12575,-25.27688 z"
     stroke-linejoin="bevel"
     stroke-linecap="square"
     stroke-width="0.953414"
     stroke="#000000"
     fill-rule="evenodd"
     fill="#fff400"
     id="shape52" />
  <path
     style="stroke-width:0.987164"
     d="m 179.54024,143.98523 c -1.0958,6.27287 11.69015,18.56918 11.43947,18.79696 -18.84709,17.11636 -38.10321,-19.72448 -29.4298,-20.61407 2.24882,0.52651 9.73159,-4.42598 12.05403,-6.49156 -0.74947,2.45465 1.28685,6.64725 5.9363,8.30867 z"
     fill-rule="evenodd"
     fill="#fff400"
     id="shape53" />
  <path
     d="m 227.86489,112.49036 c 10.40991,1.80177 13.86833,-3.42392 16.56004,1e-5 11.66089,14.65682 -25.27079,26.33217 -24.24004,17.76001 0.58047,-4.14646 4.46946,-13.22562 7.68,-17.76002 z"
     stroke-linejoin="bevel"
     stroke-linecap="square"
     stroke-width="0"
     stroke-opacity="0"
     stroke="#000000"
     fill-rule="evenodd"
     fill="#fea711"
     id="shape54" />
  <path
     style="stroke-width:0.987164"
     d="m 211.57299,132.31319 c 2.47183,3.78344 15.69826,5.40828 15.66967,5.62747 -2.15411,16.4734 -31.08968,4.21665 -26.65996,0.37665 1.5211,-0.59022 3.28333,-6.14376 3.57023,-8.15037 0.78738,1.60482 3.9933,3.05983 7.42006,2.14625 z"
     fill-rule="evenodd"
     fill="#fea711"
     id="shape55" />
  <path
     style="stroke-width:0.987164"
     d="m 197.57145,140.85597 c 2.60344,4.68398 15.43759,11.23704 15.41342,11.47435 -5.65871,18.07992 -26.9839,-3.09816 -22.56001,-6.47994 1.53565,-0.35358 3.67753,-4.65912 7.14659,-4.99441 z"
     fill-rule="evenodd"
     fill="#fea711"
     id="shape56" />
  <path
     style="stroke-width:0.987164"
     d="m 176.50493,144.89036 c -0.87321,5.42011 10.34251,12.28395 10.15026,12.47929 -14.45385,14.68323 -27.55865,-14.40768 -20.95031,-15.11929 1.70879,0.47058 7.27089,1.17137 10.80005,2.64 z"
     fill-rule="evenodd"
     fill="#fea711"
     id="shape57" />
  <path
     d="m 187.77355,158.8523 c 2.68564,-8.00414 7.12146,4.11074 7.62545,4.74406 -28.24155,27.54518 -44.00315,-12.71405 -33.71517,-17.61878 -0.7286,0.54697 3.59921,12.34034 7.86105,15.71281 4.0748,3.22438 12.75235,4.77847 18.22867,-2.83809 z"
     stroke-linejoin="bevel"
     stroke-linecap="square"
     stroke-width="0.987164"
     stroke="#000000"
     fill-rule="evenodd"
     fill="#0b63e9"
     id="shape10" />
  <path
     d="m 188.92264,148.67517 c 0.66017,10.79756 22.43535,19.84183 28.30882,7.2528 3.20544,-1.73602 6.1856,2.56748 6.28557,3.19646 1.37974,8.6806 -15.48387,14.50775 -31.93594,5.29876 -3.66597,-2.05215 -16.50005,-14.29195 -2.65845,-15.74802 z"
     stroke-linejoin="bevel"
     stroke-linecap="square"
     stroke-width="0.987164"
     stroke="#000000"
     fill-rule="evenodd"
     fill="#0b63e9"
     id="shape91" />
  <path
     d="m 250.03915,135.15701 c 9.7337,20.74067 -30.72818,32.4268 -43.33386,13.5431 -3.3784,-1.00519 26.34843,5.68389 28.76481,-12.75961 3.94357,-0.94886 14.52362,-1.14106 14.56905,-0.78349 z"
     stroke-linejoin="bevel"
     stroke-linecap="square"
     stroke-width="1.02148"
     stroke="#000000"
     fill-rule="evenodd"
     fill="#0b63e9"
     id="shape8" />
  <path
     d="m 249.2249,137.21035 c 2.79414,21.38106 -26.9687,24.81245 -37.26211,12.76397 -1.08184,1.39077 23.88312,1.36425 25.26212,-11.32397 0.3095,-2.84761 11.92522,-1.65105 11.99999,-1.44 z"
     stroke-linejoin="bevel"
     stroke-linecap="square"
     stroke-width="0"
     stroke-opacity="0"
     stroke="#000000"
     fill-rule="evenodd"
     fill="#0046aa"
     id="shape81" />
  <path
     d="m 250.09049,107.61659 c 2.51487,-5.78242 22.0689,-7.27427 21.81399,6.91069 -0.32971,18.34732 -21.08171,26.68823 -44.79691,24.48061 -8.4668,-4.35109 5.73489,-1.28846 17.14221,-9.41228 7.29956,-5.19844 8.99678,-16.45782 5.84071,-21.97902 z"
     stroke-linejoin="bevel"
     stroke-linecap="square"
     stroke-width="0.953414"
     stroke="#000000"
     fill-rule="evenodd"
     fill="#0b63e9"
     id="shape7" />
  <path
     d="m 161.38493,148.01036 c -1.78328,1.71809 5.86173,21.92249 15.35997,21.60001 -8.59801,5.78214 -21.92955,-12.43832 -15.35997,-21.60001 z"
     stroke-linejoin="bevel"
     stroke-linecap="square"
     stroke-width="0"
     stroke-opacity="0"
     stroke="#000000"
     fill-rule="evenodd"
     fill="#0046aa"
     id="shape101" />
  <path
     d="m 253.02404,109.75751 c 0.69396,-7.37596 12.37529,-4.30153 11.49678,6.8898 -1.19403,17.43795 -19.04303,22.4929 -39.77591,21.52305 -7.3925,-3.8686 10.98742,-0.008 20.9283,-7.15413 9.72819,-5.04691 10.11175,-16.37128 7.35083,-21.25872 z"
     stroke-linejoin="bevel"
     stroke-linecap="square"
     stroke-width="0"
     stroke-opacity="0"
     stroke="#000000"
     fill-rule="evenodd"
     fill="#0046aa"
     id="shape71" />
  <path
     d="m 185.86491,146.81036 c 11.64154,27.74548 31.37761,10.28668 35.75998,14.64002 3.05496,3.03462 -15.54956,13.02117 -32.16004,-1.2 -3.87936,-3.32138 -8.26149,-7.95668 -3.59994,-13.44002 z"
     stroke-linejoin="bevel"
     stroke-linecap="square"
     stroke-width="0"
     stroke-opacity="0"
     stroke="#000000"
     fill-rule="evenodd"
     fill="#0046aa"
     id="shape102" />
  <path
     d="m 261.10001,114.00117 c -2.19619,-3.17492 -2.31363,-6.86732 1.62413,-7.68123 1.39928,-0.0432 3.47068,0.97039 4.21624,6.1771 0.62691,4.37812 -1.02533,8.8748 -1.90053,10.14754 -7.30114,10.61796 0.29279,-2.52452 -3.93984,-8.64341 z"
     stroke-linejoin="bevel"
     stroke-linecap="square"
     stroke-width="0"
     stroke-opacity="0"
     stroke="#000000"
     fill-rule="evenodd"
     fill="#ffffff"
     id="path41" />
  <path
     d="m 239.71972,145.73786 c 1.59834,-3.73426 4.31822,-5.6643 6.31835,-2.16486 0.52675,1.36435 0.50068,3.91338 -3.12974,7.20923 -3.05268,2.77136 -6.99939,3.34412 -8.26044,3.10264 -10.52065,-2.01402 1.99141,-0.95012 5.07183,-8.14701 z"
     stroke-linejoin="bevel"
     stroke-linecap="square"
     stroke-width="0"
     stroke-opacity="0"
     stroke="#000000"
     fill-rule="evenodd"
     fill="#ffffff"
     id="shape92" />
  <path
     d="m 213.50875,162.4274 c 2.88628,-1.75757 5.95481,-2.12114 6.16244,0.53224 -0.12974,0.9617 -1.21323,2.4678 -5.6088,3.38043 -3.69607,0.76738 -7.22074,-0.028 -8.17008,-0.53413 -7.92053,-4.22265 2.05377,0.009 7.61644,-3.37854 z"
     stroke-linejoin="bevel"
     stroke-linecap="square"
     stroke-width="0"
     stroke-opacity="0"
     stroke="#000000"
     fill-rule="evenodd"
     fill="#ffffff"
     id="shape93" />
  <path
     d="m 175.63852,167.49655 c 2.88875,-0.61552 5.37211,0.10058 4.49419,2.58768 -0.47462,0.83148 -1.8896,1.83323 -5.59996,1.16426 -3.11991,-0.56251 -5.49871,-2.48961 -6.0253,-3.27451 -4.39429,-6.54824 1.56363,0.70882 7.13107,-0.47743 z"
     stroke-linejoin="bevel"
     stroke-linecap="square"
     stroke-width="0"
     stroke-opacity="0"
     stroke="#000000"
     fill-rule="evenodd"
     fill="#ffffff"
     id="shape94" />
  <path
     d="m 203.86509,108.36798 c 24.22603,6.50997 34.40524,-1.86363 38.6866,3.27355 6.9179,8.30077 -7.96315,16.63398 -12.45192,13.12326 2.88949,13.77104 -10.08357,19.46096 -21.30884,13.92536 9.01128,4.22934 -6.67972,24.65588 -20.58443,9.08885 -5.28028,10.89551 -25.51821,8.70803 -23.0201,-9.39067 -11.27703,-8.7675 -9.56169,-5.09449 -8.1713,-14.50846 3.26866,-8.42142 36.58046,-21.2444 46.84999,-15.51189 z"
     stroke-linejoin="bevel"
     stroke-linecap="square"
     stroke-width="0.987164"
     stroke="#000000"
     fill-rule="evenodd"
     fill="#cc200a"
     id="path46" />
  <path
     d="m 227.98558,115.57892 c 6.73866,8.02472 -1.86215,12.00655 -5.26625,8.41181 0.87233,12.74625 -6.93955,15.21044 -15.82399,9.16063 1.34497,3.05586 -6.53876,18.60243 -19.13661,7.3189 -0.50319,7.5574 -24.66066,11.46287 -21.52821,-5.45001 -8.55793,-8.98358 11.52935,-22.95921 25.02213,-22.54557 8.72765,-2.59271 29.09866,-1.69984 36.73293,3.10424 z"
     stroke-linejoin="bevel"
     stroke-linecap="square"
     stroke-width="0"
     stroke-opacity="0"
     stroke="#000000"
     fill-rule="evenodd"
     fill="#af1d0f"
     id="path48" />
  <path
     d="m 161.24383,117.78512 c 10.18762,1.19849 20.49585,-15.75684 55.75058,-5.35206 8.76791,7.04139 -7.05745,15.08092 -15.43362,11.80524 4.05946,8.32788 -11.01205,15.46499 -13.12539,6.86176 2.0119,3.7141 -8.07885,19.56331 -22.03384,7.98799 2.44984,4.70718 -14.66059,-21.76968 -5.15773,-21.30293 z"
     stroke-linejoin="bevel"
     stroke-linecap="square"
     stroke-width="0"
     stroke-opacity="0"
     stroke="#000000"
     fill-rule="evenodd"
     fill="#7f0000"
     id="shape02" />
  <path
     d="m 211.42974,48.034072 c -5.19304,1.78322 -9.6465,1.81154 -16.92483,-10.54373 -11.9374,-13.97739 -25.50181,-14.34836 -43.20006,-5.04003 -29.76202,15.65342 -13.00525,62.10456 17.64009,66.96009 -1.06816,4.789128 7.47692,43.772668 -19.0801,60.120288 -16.97401,8.50332 -40.10967,16.23567 -42.11998,6.47989 -12.385185,-5.10837 -16.208645,-11.19839 -16.920365,-19.80039 -1.98126,-12.43991 4.71701,-27.99436 25.122505,-31.21141 5.65681,-2.38051 -10.18764,-20.952538 1.0815,-19.334788 15.13964,2.17329 3.3961,-13.90605 0.79635,-30.09363 -2.38365,-14.84254 12.03096,-22.82306 6.46927,-22.29599 -13.32352,2.88612 -19.4698,-15.24803 -0.50081,-14.84882 -0.27145,0.0675 -10.71148,-1.40975 -11.04128,-7.02399 -0.34076,-5.79956 4.70719,-11.5272105 15.89321,-7.3957 -5.34618,-10.1761205 7.54661,-23.8019505 18.83521,-1.23527 9.27464,8.65399 8.31571,7.09449 21.10624,7.27641 11.63997,0.16559 22.91801,4.64157 28.73072,7.48351 8.70789,4.25741 18.44669,17.17729 14.11233,20.50356 z"
     stroke-linejoin="bevel"
     stroke-linecap="square"
     stroke-width="1.06435"
     stroke="#000000"
     fill-rule="evenodd"
     fill="#cc200a"
     id="path51" />
  <path
     d="m 149.78469,102.12492 c 0.009,-0.0835 0.0171,-0.16698 0.0257,-0.25048"
     stroke-linejoin="bevel"
     stroke-linecap="square"
     stroke-width="0.0459799"
     stroke="#cc200a"
     fill-rule="evenodd"
     fill="#cc200a"
     id="shape11" />
  <path
     d="m 218.49355,52.326172 c -4.6893,-3.41056 -5.38956,-4.44854 -6.04557,-7.68622"
     stroke-miterlimit="2.04"
     stroke-linejoin="miter"
     stroke-linecap="round"
     stroke-width="1.02178"
     stroke="#000000"
     fill="none"
     id="shape012" />
  <path
     d="m 128.56872,13.582762 c 0.42501,2.18764 4.83166,6.70273 9.71789,6.95899"
     stroke-miterlimit="4.04"
     stroke-linejoin="miter"
     stroke-linecap="round"
     stroke-width="1.02178"
     stroke="#000000"
     fill="none"
     id="shape2" />
  <path
     d="m 121.98838,28.601072 c 3.5029,-1.09459 9.57358,3.41946 8.80467,2.88137"
     stroke-miterlimit="4.04"
     stroke-linejoin="miter"
     stroke-linecap="round"
     stroke-width="1.02178"
     stroke="#000000"
     fill="none"
     id="shape021" />
  <path
     d="m 130.61156,3.6190115 c 2.27521,-1.42269 5.67434,-1.05675 4.82766,6.3867105 -0.55193,4.85225 5.3427,9.0308 4.62861,9.76572 -0.47317,0.48707 -3.27596,-0.50978 -5.38981,-2.05514 -5.45273,-3.98632 -7.8566,-12.4536905 -4.06646,-14.0972905 z"
     stroke-linejoin="bevel"
     stroke-linecap="square"
     stroke-width="0"
     stroke-opacity="0"
     stroke="#000000"
     fill-rule="evenodd"
     fill="#7f0000"
     id="shape3" />
  <path
     d="m 113.35412,36.497232 c -1.12111,-2.72384 4.14686,-6.8195 7.03861,-1.31656 2.62122,4.98812 8.48986,3.7973 8.4471,4.62364 -0.0283,0.54757 -2.23039,1.13674 -3.49506,1.63792 -5.40662,2.14252 -10.85478,-2.18545 -11.99065,-4.945 z"
     stroke-linejoin="bevel"
     stroke-linecap="square"
     stroke-width="0"
     stroke-opacity="0"
     stroke="#000000"
     fill-rule="evenodd"
     fill="#7f0000"
     id="shape06" />
  <path
     d="m 114.93706,20.917352 c 0.66036,1.56444 2.54753,2.72101 7.19713,-1.25611 2.62113,-2.24204 12.27489,3.77901 12.39669,2.72665 -1.16442,-1.71758 -1.388,-1.07466 -4.72399,-3.80141 -9.36435,-7.65409 -16.41004,-1.31798 -14.86983,2.33087 z"
     stroke-linejoin="bevel"
     stroke-linecap="square"
     stroke-width="0"
     stroke-opacity="0"
     stroke="#000000"
     fill-rule="evenodd"
     fill="#7f0000"
     id="shape07" />
  <path
     d="m 127.90487,163.85035 c -0.54263,0.29355 -47.017395,-4.65564 5.04006,-34.2 5.46032,-0.69726 15.75258,-7.2782 21.1778,8.82317 -1.97383,9.13361 -8.73587,18.58037 -26.21786,25.37683 z"
     stroke-linejoin="bevel"
     stroke-linecap="square"
     stroke-width="0"
     stroke-opacity="0"
     stroke="#000000"
     fill-rule="evenodd"
     fill="#ff0000"
     id="shape010" />
  <path
     d="m 165.70491,100.4904 c 9.15349,7.00979 1.08376,24.80977 -6.12003,22.67995 -11.06248,-3.27058 3.96915,-11.25002 -14.76003,-28.799988 -10.16635,-9.52628 -9.95025,-18.46571 -9.71992,-27.36 2.89773,15.59142 11.69621,25.44168 21.71235,30.39253 2.89842,1.43266 5.89879,2.45505 8.88763,3.087508 z"
     stroke-linejoin="bevel"
     stroke-linecap="square"
     stroke-width="0"
     stroke-opacity="0"
     stroke="#000000"
     fill-rule="evenodd"
     fill="#7f0000"
     id="path61" />
  <path
     d="m 135.90911,7.8210115 c 0.86135,-2.86685 1.25388,-5.32166 -1.66543,-4.89743 -1.74053,0.40479 -2.21636,1.59721 -1.6363,5.56314 0.48775,3.3347805 2.59068,6.1685205 3.47026,6.8656905 7.33754,5.81565 -1.82858,-2.00622 -0.16853,-7.5314005 z"
     stroke-linejoin="bevel"
     stroke-linecap="square"
     stroke-width="0"
     stroke-opacity="0"
     stroke="#000000"
     fill-rule="evenodd"
     fill="#ffffff"
     id="path63" />
  <path
     d="m 209.86492,46.730352 c -2.94182,1.14919 -3.57534,3.01175 -11.45747,-9.06339 -8.1421,-12.47305 -16.55059,-13.09901 -13.98255,-13.73659 17.05095,4.72672 29.98455,16.13186 25.44002,22.79998 z"
     stroke-linejoin="bevel"
     stroke-linecap="square"
     stroke-width="0"
     stroke-opacity="0"
     stroke="#000000"
     fill-rule="evenodd"
     fill="#7f0000"
     id="shape061" />
  <path
     d="m 209.9453,45.919362 c -1.24514,0.28758 -1.58067,0.41464 -4.06517,-5.6699 -2.56645,-6.28516 -6.62407,-8.36977 -5.45946,-7.65762 6.68875,4.1737 11.99868,10.83536 9.52463,13.32752 z"
     stroke-linejoin="bevel"
     stroke-linecap="square"
     stroke-width="0"
     stroke-opacity="0"
     stroke="#000000"
     fill-rule="evenodd"
     fill="#ffffff"
     id="shape0611" />
  <path
     style="stroke-width:1.05025"
     d="m 91.916785,98.828712 c -6.24553,3.801918 -21.94351,-1.60868 -21.97804,-1.16128 -0.56534,7.325398 2.15728,12.704258 6.47283,16.335028 9.42298,7.92807 34.538305,6.17495 41.502175,-0.49538 0.77128,-0.7388 -8.77731,-4.16276 -8.10271,-5.47833 -3.26974,-0.63971 -13.471705,-1.05005 -17.894255,-9.200038 z"
     fill-rule="evenodd"
     fill="#fff400"
     id="path67" />
  <path
     d="m 116.82633,115.28608 c -12.77266,8.60498 -32.850885,11.79188 -46.659945,-3.53779 -3.72133,-4.13114 -3.23224,-10.32291 1.58808,-16.629198 26.22545,-4.72365 2.4912,3.79462 4.69744,7.008718 1.34302,3.48149 1.51542,7.32421 6.05479,10.74261 13.29938,10.32231 35.600805,1.18843 34.319635,2.41566 z"
     stroke-linejoin="bevel"
     stroke-linecap="square"
     stroke-width="1.05025"
     stroke="#000000"
     fill-rule="evenodd"
     fill="#0b63e9"
     id="shape21" />
  <path
     style="stroke-width:1.05025"
     d="m 91.302445,79.274142 c -9.53077,1.35231 -27.7477,-7.10228 -27.96389,-6.75712 -11.26789,17.99176 28.10238,29.209258 44.955285,24.2036 1.28025,-0.38026 1.2352,-4.54454 2.6116,-5.40726 -3.98122,-1.37516 -17.011145,-4.40975 -19.602995,-12.03922 z"
     fill-rule="evenodd"
     fill="#fff400"
     id="shape611" />
  <path
     style="stroke-width:1.05025"
     d="m 90.368485,80.967442 c -6.94314,0.92943 -20.24366,-5.11343 -20.40033,-4.86959 -8.16479,12.71017 20.56127,20.77318 32.831635,17.27782 0.93212,-0.26551 0.88816,-3.21524 1.88908,-3.82221 -2.9055,-0.98592 -12.410815,-3.17422 -14.320385,-8.58602 z"
     fill-rule="evenodd"
     fill="#fea711"
     id="path71" />
  <path
     style="stroke-width:1.05025"
     d="m 101.22502,99.177492 c -6.817905,2.568368 -17.788345,-1.30609 -17.881645,-0.97007 -4.86012,17.514808 22.367805,20.779998 33.913275,13.929318 0.87707,-0.52037 -7.00329,-5.70957 -6.14897,-6.66995 -3.22675,-0.64061 -6.46725,0.0755 -9.88266,-6.289298 z"
     fill-rule="evenodd"
     fill="#fea711"
     id="shape6111" />
  <path
     d="m 54.390125,71.266272 c -16.08786,12.55245 6.48304,37.765288 44.09657,30.269018 3.571695,-4.778548 0.6227,-9.862778 0.21924,-8.535428 -8.7445,2.67179 -18.14385,2.71517 -25.1717,-0.0497 -7.028,-2.76487 -14.75153,-9.93138 -5.30964,-17.787 0.99956,-11.06791 -6.60474,-0.77385 -13.83447,-3.89684 z"
     stroke-linejoin="bevel"
     stroke-linecap="square"
     stroke-width="1.05025"
     stroke="#000000"
     fill-rule="evenodd"
     fill="#0b63e9"
     id="path74" />
  <path
     d="m 53.752435,76.652132 c -4.29278,8.30274 2.02098,27.863818 46.596485,22.04428 3.29832,-4.80771 7.36041,-5.27556 7.08028,-3.97017 -18.331115,5.834118 -41.803125,-0.27459 -44.526145,-8.60176 -3.39004,-10.36634 -7.07745,-13.48223 -9.15062,-9.47235 z"
     stroke-linejoin="bevel"
     stroke-linecap="square"
     stroke-width="0"
     stroke-opacity="0"
     stroke="#000000"
     fill-rule="evenodd"
     fill="#0046aa"
     id="shape211" />
  <path
     d="m 57.515025,82.724282 c 1.30733,-3.01461 0.47748,-6.23289 -3.52847,-6.47432 -1.36067,0.12771 -3.09968,1.25192 -2.48886,5.85852 0.51362,3.87358 3.25577,7.58085 4.42504,8.58215 9.75418,8.35268 -0.92726,-2.15639 1.59229,-7.96635 z"
     stroke-linejoin="bevel"
     stroke-linecap="square"
     stroke-width="0"
     stroke-opacity="0"
     stroke="#000000"
     fill-rule="evenodd"
     fill="#ffffff"
     id="shape921" />
  <path
     d="m 91.279405,34.563142 c -4.73119,-3.04447 -7.15549,-10.68993 -13.31622,-12.93203 -12.70701,-4.62452 -22.21217,2.53829 -23.34048,7.10041 -1.86783,13.18808 26.04354,33.22063 22.27828,27.52336 -0.41591,-0.62973 3.38449,-7.06167 6.65599,-7.59726 3.56304,-0.58338 -7.17973,-7.43036 -5.32452,-11.85209 0.65553,-4.5961 13.75653,-2.40291 13.04695,-2.24239 z"
     stroke-linejoin="bevel"
     stroke-linecap="square"
     stroke-width="1.01513"
     stroke="#000000"
     fill-rule="evenodd"
     fill="#f2fc24"
     id="path78" />
  <path
     style="stroke-width:1.05025"
     d="m 80.891305,58.491922 c -10.40307,-0.75924 -29.66092,-15.6585 -30.04244,-15.47489 -28.67654,13.80573 31.09023,42.44714 32.72131,34.02584 -0.83041,-2.40746 7.50402,-8.43414 10.96553,-10.14826 -4.07675,0.024 -10.97934,-3.2557 -13.6444,-8.40269 z"
     fill-rule="evenodd"
     fill="#ffea00"
     id="path80" />
  <path
     d="m 91.548285,36.815232 c -3.45485,-2.38229 -6.26302,-10.49836 -10.47876,-12.21083 -8.69539,-3.53215 -15.35713,3.50955 -16.05361,9.54903 -1.55025,13.44551 20.43246,27.12575 17.90402,22.63486 -0.27932,-0.49642 2.4082,-5.66095 4.66605,-6.12552 2.45908,-0.50629 -4.8595,-5.83053 -3.53332,-9.37209 0.50234,-3.66621 6.98261,-4.59573 7.49562,-4.47545 z"
     stroke-linejoin="bevel"
     stroke-linecap="square"
     stroke-width="0"
     stroke-opacity="0"
     stroke="#000000"
     fill-rule="evenodd"
     fill="#fea711"
     id="path82" />
  <path
     style="stroke-width:1.05025"
     d="m 93.769495,63.502682 c -8.90863,-0.63129 -21.75942,-7.92351 -26.26194,-11.68699 -24.60954,12.28322 23.5521,29.27926 24.97711,21.84535 -1.79062,-6.34362 3.55068,-5.62822 1.28483,-10.15836 z"
     fill-rule="evenodd"
     fill="#fea711"
     id="shape512" />
  <path
     d="m 47.060815,37.504352 c -12.00469,3.08527 -11.75173,18.45692 -0.27779,28.98881 6.41213,5.88573 32.39035,14.56237 36.69894,13.61515 -0.18823,-0.74199 2.9716,-2.74163 1.28209,-3.65984 -1.4388,-0.78196 -14.13967,-3.22702 -22.36394,-7.84084 -8.22426,-4.61383 -11.8459,-17.90692 2.19593,-18.27714 4.0619,1.74071 -11.4435,-13.91309 -17.53523,-12.82614 z"
     stroke-linejoin="bevel"
     stroke-linecap="square"
     stroke-width="1.05025"
     stroke="#000000"
     fill-rule="evenodd"
     fill="#0b63e9"
     id="shape12" />
  <path
     d="m 82.840995,25.099372 c -6.27102,-9.55582 -23.50822,-18.5463805 -31.94841,-11.90927 -7.46606,5.87117 -9.22124,15.39846 -5.24852,22.21013 4.51164,10.74012 39.02491,27.7337 38.29342,25.2333 -11.88326,-10.27254 -29.14425,-17.50668 -26.24225,-30.14483 3.39389,-14.78022 19.62494,-9.31503 25.14576,-5.38933 z"
     stroke-linejoin="bevel"
     stroke-linecap="square"
     stroke-width="0.950878"
     stroke="#000000"
     fill-rule="evenodd"
     fill="#0b63e9"
     id="shape03" />
  <path
     d="m 43.942235,41.220822 c -2.66523,3.40868 -3.49383,3.85672 -3.77455,11.98631 0.94653,3.85365 2.16816,8.86229 8.57786,14.38612 6.35801,5.32493 30.99517,12.57205 35.20977,11.78406 -0.19317,-0.6633 1.86356,-1.69154 0.19602,-2.53146 -3.37544,-0.61294 -46.03375,-8.77309 -33.19336,-30.60369 1.99298,-4.28176 -5.22172,-7.31581 -7.01574,-5.02134 z"
     stroke-linejoin="bevel"
     stroke-linecap="square"
     stroke-width="0"
     stroke-opacity="0"
     stroke="#000000"
     fill-rule="evenodd"
     fill="#0046aa"
     id="path87" />
  <path
     d="m 80.241635,22.374622 c -8.70062,-6.87496 -25.18827,-11.48313 -28.2716,-8.8031 -14.91861,13.09177 -3.48661,25.21693 -0.46978,27.88964 8.49342,9.96365 48.676255,25.82628 46.49135,23.60373 -13.66756,-6.66168 -41.97235,-17.22865 -45.64464,-35.38796 1.76863,-14.53121 21.11971,-10.94709 27.89467,-7.30231 z"
     stroke-linejoin="bevel"
     stroke-linecap="square"
     stroke-width="0"
     stroke-opacity="0"
     stroke="#000000"
     fill-rule="evenodd"
     fill="#0046aa"
     id="shape013" />
  <path
     d="m 70.214565,104.92105 c -0.58636,6.78216 9.33356,21.76455 38.340155,14.49003 0.89851,-3.97646 3.55964,-4.5903 3.73907,-3.54791 -10.94769,5.6944 -28.836625,2.31942 -33.083735,-4.05648 -5.28737,-7.93722 -8.71245,-10.16117 -8.99549,-6.88564 z"
     stroke-linejoin="bevel"
     stroke-linecap="square"
     stroke-width="0"
     stroke-opacity="0"
     stroke="#000000"
     fill-rule="evenodd"
     fill="#0046aa"
     id="shape212" />
  <path
     d="m 54.303445,19.850112 c 3.81604,-2.71701 8.60716,-5.30288 2.66078,-6.86825 -1.49665,-0.29776 -5.7774,0.58102 -8.94078,5.55797 -2.65996,4.18496 -3.19498,6.40253 -2.29329,9.87966 5.71928,15.16749 -0.61659,-5.43187 8.57329,-8.56938 z"
     stroke-linejoin="bevel"
     stroke-linecap="square"
     stroke-width="0"
     stroke-opacity="0"
     stroke="#000000"
     fill-rule="evenodd"
     fill="#ffffff"
     id="path91" />
  <path
     d="m 46.425085,48.924802 c 1.64294,-3.57519 1.36718,-7.38977 -2.25021,-7.6721 -1.26004,0.15273 -3.01411,1.48718 -3.14564,6.94789 -0.11061,4.59174 1.83611,8.98415 2.75282,10.17011 7.6474,9.8929 -0.52331,-2.5556 2.64303,-9.4459 z"
     stroke-linejoin="bevel"
     stroke-linecap="square"
     stroke-width="0"
     stroke-opacity="0"
     stroke="#000000"
     fill-rule="evenodd"
     fill="#ffffff"
     id="shape911" />
  <path
     d="m 127.76565,87.701332 c 10.1157,8.66432 9.83901,19.015308 4.35526,24.695538 -12.67282,13.12696 -29.70619,1.13477 -25.725,-6.76509 -13.766275,1.95378 -20.302955,-9.402648 -11.453415,-17.871898 -10.28749,2.22365 -25.55866,-15.93313 -7.52452,-23.04586 -0.72148,0.89277 -8.16205,-2.43873 -10.15782,-7.45155 -1.27962,-3.21396 -0.32105,-7.11917 6.08186,-11.0452 -2.91848,0.31923 -14.30063,-14.11277 1.87677,-16.89939 9.19824,-1.58443 25.006175,13.0517 26.167605,23.1068 2.85386,15.56368 -0.51615,18.62547 6.262,26.15505 2.16235,2.40217 5.35765,5.25902 10.11726,9.1216 z"
     stroke-linejoin="bevel"
     stroke-linecap="square"
     stroke-width="1.02537"
     stroke="#000000"
     fill-rule="evenodd"
     fill="#ff0000"
     id="shape0111" />
  <path
     d="m 92.704885,23.023792 c 0.0236,-0.0718 0.0472,-0.14351 0.0708,-0.21526"
     stroke-linejoin="bevel"
     stroke-linecap="square"
     stroke-width="0.0424329"
     stroke="#cc200a"
     fill-rule="evenodd"
     fill="#cc200a"
     id="shape111" />
  <path
     d="M 92.775665,22.808532"
     stroke-miterlimit="2.04"
     stroke-linejoin="miter"
     stroke-linecap="round"
     stroke-width="1.01989"
     stroke="#000000"
     fill="none"
     id="shape022" />
  <path
     d="m 127.77301,92.374552 c 10.15872,8.398508 8.8731,11.455528 5.67276,16.621298 -9.11958,14.72031 -27.88226,2.64785 -23.94159,-4.94112 -13.754985,1.81061 -20.348805,-9.162518 -11.543025,-17.274748 -10.2752,2.08859 -25.63716,-15.48039 -7.64087,-22.23822 -0.71686,0.8562 -8.17361,-2.39148 -10.19465,-7.23052 -1.29582,-3.10254 -0.35721,-6.85927 6.0252,-10.60784 -2.91658,0.29236 -14.37096,-13.66855 1.79068,-16.26884 9.18933,-1.47847 14.935035,11.08584 17.548855,20.48679 2.93263,15.00674 0.0547,22.31266 6.87052,29.6008 2.17433,2.32518 10.63338,8.10706 15.41212,11.8524 z"
     stroke-linejoin="bevel"
     stroke-linecap="square"
     stroke-width="0"
     stroke-opacity="0"
     stroke="#000000"
     fill-rule="evenodd"
     fill="#7f0000"
     id="shape05" />
  <path
     d="m 125.51411,90.248452 c 8.65528,7.53406 11.03112,9.829318 9.12194,14.970188 -1.8648,5.02137 -8.25233,5.70193 -12.56978,5.1847 -7.08742,-0.8491 -13.28223,-6.64824 -11.24073,-10.963958 -11.806605,1.732128 -17.387975,-8.15677 -9.78355,-15.55989 -8.824645,1.96018 -21.880725,-13.84027 -6.404625,-20.0796 -0.62036,0.77995 -6.99282,-2.10959 -8.6938,-6.47653 -1.09064,-2.79975 -0.2609,-6.20696 5.23673,-9.64352 -2.50284,0.28431 -14.94623,-12.24895 -1.07071,-14.71225 7.8895,-1.40057 11.438315,5.24324 14.732665,11.28755 6.7017,12.29576 1.30284,27.87544 7.09898,34.42695 3.14837,4.91074 9.49997,8.20814 13.57288,11.56636 z"
     stroke-linejoin="bevel"
     stroke-linecap="square"
     stroke-width="0"
     stroke-opacity="0"
     stroke="#000000"
     fill-rule="evenodd"
     fill="#d00000"
     id="path98" />
  <path
     d="m 104.40675,48.410232 c 2.0172,4.87691 5.55249,13.09216 4.98489,25.50174 -0.58336,12.75212 19.09104,17.91311 19.02494,25.48364 -0.0498,5.718818 -21.08735,-11.70354 -20.96872,-20.48573 0.12247,-9.0609 -0.23319,-17.26393 -8.864645,-27.29513 -12.00141,-13.94761 0.95442,-14.97665 5.823535,-3.20452 z"
     stroke-linejoin="bevel"
     stroke-linecap="square"
     stroke-width="0"
     stroke-opacity="0"
     stroke="#000000"
     fill-rule="evenodd"
     fill="#ffffff"
     id="shape0101" />
  <path
     d="m 76.208125,110.12105 c -0.4371,-2.48724 -2.43583,-4.92811 -5.30068,-4.73126 -0.88007,0.23113 -1.57862,1.27924 0.8851,4.82867 2.07169,2.98462 5.60372,5.6242 6.85279,6.29585 10.41978,5.60279 -1.59472,-1.59962 -2.43721,-6.39326 z"
     stroke-linejoin="bevel"
     stroke-linecap="square"
     stroke-width="0"
     stroke-opacity="0"
     stroke="#000000"
     fill-rule="evenodd"
     fill="#ffffff"
     id="path101" />
  <path
     d="m 115.07812,166.56023 c -7.2244,8.1776 -2.39893,11.56709 -1.57046,12.87492 4.36629,5.44446 15.45112,-1.65073 6.49043,-7.72523 -1.08262,-0.73396 5.63247,-3.35695 7.99607,1.07539 -0.1028,5.0496 3.4974,5.52743 3.45097,5.58242 5.67375,0.94944 11.09995,-3.19767 8.65533,-9.34574 -0.99125,-1.59815 1.25272,-2.8529 -1.13931,-6.98605 -4.7139,-8.14492 -19.98568,0.11266 -23.88303,4.52429 z"
     stroke-linejoin="bevel"
     stroke-linecap="square"
     stroke-width="0.824767"
     stroke="#000000"
     fill-rule="evenodd"
     fill="#f99422"
     id="shape13" />
  <path
     d="m 129.07566,164.70708 c -2.26293,1.44829 -1.97573,6.06419 2.16525,7.39159 3.38293,1.0844 6.90893,-0.92431 8.83224,-4.3706"
     stroke-linejoin="bevel"
     stroke-linecap="round"
     stroke-width="0.807935"
     stroke="#000000"
     fill="none"
     id="shape04" />
  <path
     d="m 120.14046,171.93256 c -2.3762,-1.14956 -5.11861,2.3626 -5.12901,2.22487"
     stroke-linejoin="bevel"
     stroke-linecap="round"
     stroke-width="0.807935"
     stroke="#000000"
     fill="none"
     id="path105" />
  <path
     d="m 91.036595,150.60929 c -1.48191,12.13834 5.22931,12.20148 6.78428,13.03262 7.547135,2.39238 13.312395,-11.12555 1.08902,-11.25959 -1.47685,-0.0162 3.088415,-6.63622 8.124935,-3.95018 3.13807,4.79329 6.79223,3.00878 6.78429,3.08905 5.88454,-2.62834 8.27515,-9.87676 2.06454,-14.11955 -1.94523,-0.88233 -0.66189,-3.44877 -5.53319,-5.83698 -9.56368,-4.72377 -18.478435,12.47873 -19.313875,19.04463 z"
     stroke-linejoin="bevel"
     stroke-linecap="square"
     stroke-width="0.928428"
     stroke="#000000"
     fill-rule="evenodd"
     fill="#f99422"
     id="shape14" />
  <path
     d="m 102.8767,140.19089 c -1.1756,2.75877 2.04668,6.90443 6.74471,5.58188 3.83798,-1.08045 5.82852,-5.14679 5.40927,-9.5666"
     stroke-linejoin="bevel"
     stroke-linecap="round"
     stroke-width="0.90948"
     stroke="#000000"
     fill="none"
     id="path108" />
  <path
     d="m 99.199635,152.49539 c -2.94418,0.3956 -3.24393,5.38465 -3.34178,5.26208"
     stroke-linejoin="bevel"
     stroke-linecap="round"
     stroke-width="0.90948"
     stroke="#000000"
     fill="none"
     id="shape112" />
  <path
     d="m 133.14977,138.26323 c -3.79887,0.65021 -7.29288,-1.03618 -8.75927,-4.22753 -0.49894,-1.70288 -0.58094,-3.27566 -0.35436,-4.69423 0.97613,-6.11008 7.67821,-9.36144 11.46267,-7.83503"
     stroke-linejoin="bevel"
     stroke-linecap="round"
     stroke-width="0"
     stroke-opacity="0"
     stroke="#000000"
     fill="#7f0000"
     id="path111" />
  <path
     sodipodi:arc-type="arc"
     stroke-linejoin="bevel"
     stroke-linecap="round"
     stroke-width="0"
     stroke-opacity="0"
     stroke="#000000"
     fill-rule="evenodd"
     fill="#7f0000"
     d="m -186.42719,39.277965 a 10.354641,11.285358 0 0 1 5.23589,11.511751 10.354641,11.285358 0 0 1 -8.04431,9.39244 10.354641,11.285358 0 0 1 -10.89738,-4.901469 10.354641,11.285358 0 0 1 0.37487,-12.842032"
     sodipodi:open="true"
     sodipodi:end="3.7789983"
     sodipodi:start="5.2173725"
     sodipodi:cy="49.154713"
     sodipodi:cx="-191.43669"
     sodipodi:ry="11.285358"
     sodipodi:rx="10.354641"
     sodipodi:type="arc"
     transform="matrix(-0.86504691,-0.50169098,-0.49078531,0.87128054,0,0)"
     id="path113" />
  <path
     d="m 132.8347,136.06297 c -3.07832,0.62381 -5.84492,-0.61138 -6.93556,-3.09648 -0.35361,-1.33421 -0.37515,-2.57724 -0.15244,-3.70703 0.95942,-4.86638 6.48102,-2.16594 9.48605,-1.06574"
     stroke-linejoin="bevel"
     stroke-linecap="round"
     stroke-width="0"
     stroke-opacity="0"
     stroke="#000000"
     fill="#ff0000"
     id="shape09" />
  <path
     d="m 134.19007,133.9764 c -2.97986,0.39421 -6.32563,-1.216 -7.58589,-3.79216 -2.45076,-7.44006 4.92239,-12.19607 12.29399,-12.28596"
     stroke-linejoin="bevel"
     stroke-linecap="round"
     stroke-width="0.83075"
     stroke="#000000"
     fill="#d00000"
     id="path116" />
  <path
     d="m 161.56982,135.79632 c 2.00424,2.86743 1.63535,6.73441 -0.8797,9.22227 -2.51505,2.48778 -6.47043,2.89814 -9.43295,0.97854 -2.96256,-1.91951 -4.10076,-5.63016 -2.71442,-8.84936"
     stroke-linejoin="bevel"
     stroke-linecap="round"
     stroke-width="0"
     stroke-opacity="0"
     stroke="#000000"
     fill-rule="evenodd"
     fill="#7f0000"
     id="shape041" />
  <path
     sodipodi:arc-type="arc"
     stroke-linejoin="bevel"
     stroke-linecap="round"
     stroke-width="0"
     stroke-opacity="0"
     stroke="#000000"
     fill-rule="evenodd"
     fill="#ff0000"
     d="m -185.32539,41.040358 a 9.11415,10.703373 0 0 1 5.70492,10.499984 9.11415,10.703373 0 0 1 -6.61972,9.731413 9.11415,10.703373 0 0 1 -9.98021,-4.215032 9.11415,10.703373 0 0 1 0.17408,-12.453656"
     sodipodi:open="true"
     sodipodi:end="3.7789983"
     sodipodi:start="5.0942545"
     sodipodi:cy="50.972778"
     sodipodi:cx="-188.7218"
     sodipodi:ry="10.703373"
     sodipodi:rx="9.11415"
     sodipodi:type="arc"
     transform="matrix(-0.87493721,-0.48423639,-0.44810809,0.89397938,0,0)"
     id="shape051" />
  <path
     d="m 162.42199,140.81711 c -1.37413,3.16208 -4.55921,5.10976 -7.98466,4.88265 -1.68451,-0.33685 -3.04866,-0.93585 -4.1271,-1.70469 -4.64507,-3.31195 1.96722,-7.08201 5.16461,-9.31776"
     stroke-linejoin="bevel"
     stroke-linecap="round"
     stroke-width="0"
     stroke-opacity="0"
     stroke="#000000"
     fill="#ff0000"
     id="shape091" />
  <path
     d="m 148.79054,137.51194 c 2.37564,4.76151 4.50402,6.2509 7.32445,6.42938 8.30708,0.52563 9.02503,-11.2246 1.81348,-17.51355"
     stroke-linejoin="bevel"
     stroke-linecap="round"
     stroke-width="0.83075"
     stroke="#000000"
     fill="#d00000"
     id="shape0112" />
  <path
     d="m 151.89444,128.79013 c 0.21347,3.62818 -0.11367,7.54207 -2.62895,11.17018 -2.5153,3.62819 -6.87421,5.83493 -10.13208,4.48503 -3.2578,-1.3499 -5.15597,-3.53912 -5.36821,-8.7602 -0.17769,-4.3719 5.53404,-10.5989 9.54958,-12.04639"
     stroke-linejoin="bevel"
     stroke-linecap="round"
     stroke-width="0.83075"
     stroke="#000000"
     fill-rule="evenodd"
     fill="#d00000"
     id="shape014" />
  <path
     d="m 144.15906,135.44387 c -2.28133,1.93414 -3.40184,4.54881 -1.15574,5.71936 0.86787,0.24057 2.45807,-0.17148 4.4029,-3.77153 1.63533,-3.02716 1.87071,-6.48049 1.68098,-7.51898 -1.58255,-8.66404 -0.53141,1.84353 -4.92814,5.57115 z"
     stroke-linejoin="bevel"
     stroke-linecap="square"
     stroke-width="0"
     stroke-opacity="0"
     stroke="#000000"
     fill-rule="evenodd"
     fill="#fe3521"
     id="shape912" />
  <path
     d="m 157.6326,137.18573 c -1.23435,2.33689 -1.19556,4.75536 1.21118,4.80156 0.8479,-0.14375 2.07105,-1.05813 2.36725,-4.53969 0.24906,-2.92752 -0.88439,-5.65221 -1.45178,-6.37334 -4.73339,-6.01629 0.25225,1.60761 -2.12665,6.11147 z"
     stroke-linejoin="bevel"
     stroke-linecap="square"
     stroke-width="0"
     stroke-opacity="0"
     stroke="#000000"
     fill-rule="evenodd"
     fill="#fe3521"
     id="path126" />
  <path
     style="stroke-width:1.01023"
     d="m 175.98667,76.463022 c 16.24622,3.26165 12.18526,21.00287 9.56749,23.907828 -3.82705,4.24689 -3.77418,13.65955 -12.98941,14.52641 -3.50771,-0.81056 -1.427,-22.906618 -4.3399,-27.006928 4.82732,-1.45707 7.76544,-9.9863 7.76182,-11.42731 z"
     fill-rule="evenodd"
     fill="#000000"
     id="path128" />
  <path
     d="m 170.41621,102.27626 c 5.83217,-8.219308 11.2385,4.504 7.52954,9.63409 -3.19959,4.42564 -0.73848,1.83886 -1.35905,4.54583 -0.51447,2.24383 -5.08242,1.37808 -5.58231,-0.57078 0.28705,-2.69374 -1.74809,-12.50217 -0.58818,-13.60914 z"
     stroke-linejoin="bevel"
     stroke-linecap="square"
     stroke-width="0.717532"
     stroke="#000000"
     fill-rule="evenodd"
     fill="#fecada"
     id="shape22" />
  <path
     d="m 170.22182,112.78345 c 0.24783,-1.16094 -0.79642,-6.47498 -0.36697,-7.14932 2.03668,-5.14723 7.81903,-1.67175 7.43679,6.61027 0.69937,1.52567 -3.21835,4.51763 -4.3095,4.16442 -1.00842,-1.49229 -2.87828,-1.94263 -2.76032,-3.62537 z"
     stroke-linejoin="bevel"
     stroke-linecap="square"
     stroke-width="0"
     stroke-opacity="0"
     stroke="#000000"
     fill-rule="evenodd"
     fill="#ff7d7d"
     id="path131" />
  <path
     d="m 171.71604,84.281812 c 1.09944,1.17215 3.09037,6.40696 1.04046,12.08147 -2.18803,6.056558 -4.19004,18.616838 3.69896,16.457228 6.68629,-1.83047 3.22069,-15.817698 15.91825,-22.428928 0.53859,-0.28043 2.40018,5.19537 1.5829,5.5137 -1.73043,0.67398 -9.71174,5.278648 -11.685,15.410018 -0.40792,2.0939 -2.6002,6.12404 -4.84281,6.54037 -2.50308,0.46452 -8.81195,2.27896 -10.58557,-7.94444 -1.46525,-8.44618 3.4671,-13.258898 -0.81927,-21.238228 0.10751,1.21196 6.21915,-2.67782 5.69208,-4.39119 z"
     stroke-linejoin="bevel"
     stroke-linecap="square"
     stroke-width="1.00415"
     stroke="#000000"
     fill-rule="evenodd"
     fill="#ffb100"
     id="shape08" />
  <path
     d="m 187.29323,63.025102 c -0.96644,0.55378 -2.46937,1.66179 -3.56363,1.81331"
     stroke-linejoin="bevel"
     stroke-linecap="square"
     stroke-width="0.0442646"
     stroke="#fff400"
     fill-rule="evenodd"
     fill="#fff400"
     id="shape015" />
  <path
     d="m 177.54067,72.122052 c -6.26022,15.78082 9.54924,17.32181 11.49916,27.15631 3.1389,7.394538 -9.18322,34.986488 13.74602,23.785548 4.61416,-2.39329 10.64291,-5.52519 14.62961,-9.05662 19.25503,-14.035418 27.14482,-43.372608 5.16564,-59.582168 -11.41642,-7.81755 -31.04474,3.24448 -34.53965,5.97201 -6.67708,5.21093 -9.03881,8.0395 -10.50078,11.72492 z"
     stroke-linejoin="bevel"
     stroke-linecap="square"
     stroke-width="1.00415"
     stroke="#000000"
     fill-rule="evenodd"
     fill="#fff400"
     id="shape15" />
  <path
     d="m 218.72822,54.513472 c -5.93245,-2.91299 -17.66074,0.50917 -16.50023,2.07975 6.53236,8.84058 18.64847,11.34377 18.12585,27.1749 -0.5877,17.802428 -23.71403,40.007748 -26.10556,38.438108 9.98146,4.40393 65.85287,-36.363458 24.47994,-67.692758 z"
     stroke-linejoin="bevel"
     stroke-linecap="square"
     stroke-width="0"
     stroke-opacity="0"
     stroke="#000000"
     fill-rule="evenodd"
     fill="#ffff7d"
     id="shape23" />
  <path
     d="m 214.96498,56.204622 c -4.70842,-1.79185 13.60854,12.16218 13.08592,27.9933 -0.58772,17.802428 -23.46482,36.829728 -33.17366,37.648408 9.98146,4.40393 61.46067,-34.312458 20.08774,-65.641708 z"
     stroke-linejoin="bevel"
     stroke-linecap="square"
     stroke-width="0"
     stroke-opacity="0"
     stroke="#000000"
     fill-rule="evenodd"
     fill="#ffffff"
     id="shape0113" />
  <path
     sodipodi:arc-type="arc"
     stroke-linejoin="bevel"
     stroke-linecap="round"
     stroke-width="1.10754"
     stroke="#000000"
     fill="none"
     d="m -189.00042,4.1569866 a 17.558025,45.151443 0 0 1 13.60773,-5.5309042 17.558025,45.151443 0 0 1 10.97121,21.4272526"
     sodipodi:open="true"
     sodipodi:end="5.7650798"
     sodipodi:start="4.1524782"
     sodipodi:cy="42.413918"
     sodipodi:cx="-179.67517"
     sodipodi:ry="45.151443"
     sodipodi:rx="17.558025"
     sodipodi:type="arc"
     transform="matrix(-0.98469629,-0.17427913,-0.18168729,0.98335636,0,0)"
     id="shape0114" />
  <path
     sodipodi:arc-type="arc"
     stroke-linejoin="bevel"
     stroke-linecap="round"
     stroke-width="1.15871"
     stroke="#000000"
     fill="none"
     d="m 164.06514,75.756836 a 16.283161,14.116339 0 0 1 5.83038,13.032206 16.283161,14.116339 0 0 1 -9.96091,10.991655"
     sodipodi:open="true"
     sodipodi:end="1.1838717"
     sodipodi:start="5.3952446"
     sodipodi:cy="86.707924"
     sodipodi:cx="153.79028"
     sodipodi:ry="14.116339"
     sodipodi:rx="16.283161"
     sodipodi:type="arc"
     transform="matrix(0.58955937,0.80772504,0.80757615,-0.58976331,0,0)"
     id="shape031" />
  <g
     fill="none"
     transform="matrix(-0.768909,-0.35985358,-0.55797178,1.069054,205.84329,59.093872)"
     id="group0">
    <path
       d="M 0.0221724,0.561977 C 1.69374,-1.92555 8.56989,4.5297 7.5864,6.58488 7.40117,6.97195 4.28911,8.82377 3.19915,6.74337 3.28673,1.2671 -0.314077,0.812741 0.0221724,0.561977 Z"
       fill-rule="evenodd"
       fill="#000000"
       transform="rotate(-7.6668187,7.6478658,0.51244593)"
       id="shape16" />
    <ellipse
       stroke-linejoin="bevel"
       stroke-linecap="square"
       stroke-width="1.6006"
       stroke="#000000"
       fill-rule="evenodd"
       fill="#000000"
       cy="1.8099178"
       cx="2.3481212"
       ry="1.8099178"
       rx="2.3481212"
       transform="translate(3.0672593,4.8720092)"
       id="shape24" />
  </g>
  <path
     sodipodi:arc-type="arc"
     stroke-linejoin="bevel"
     stroke-linecap="round"
     stroke-width="2.24754"
     stroke="#000000"
     fill="none"
     d="m -189.99012,81.172345 a 17.773329,75.536781 0 0 1 17.0073,2.971728"
     sodipodi:open="true"
     sodipodi:end="5.2528283"
     sodipodi:start="4.2541303"
     sodipodi:cy="148.91556"
     sodipodi:cx="-182.12743"
     sodipodi:ry="75.536781"
     sodipodi:rx="17.773329"
     sodipodi:type="arc"
     transform="matrix(-0.98631053,0.16489857,-0.07440719,0.99722794,0,0)"
     id="path143" />
</svg>
