<?xml version="1.0" encoding="UTF-8"?>
<!DOCTYPE svg PUBLIC "-//W3C//DTD SVG 1.1//EN" "http://www.w3.org/Graphics/SVG/1.1/DTD/svg11.dtd">
<svg xmlns="http://www.w3.org/2000/svg" version="1.1" width="48px" height="48px" style="shape-rendering:geometricPrecision; text-rendering:geometricPrecision; image-rendering:optimizeQuality; fill-rule:evenodd; clip-rule:evenodd" xmlns:xlink="http://www.w3.org/1999/xlink">
<g><path style="opacity:0.533" fill="#0a140f" d="M 25.5,1.5 C 34.5885,5.35634 37.4218,12.023 34,21.5C 30.4906,25.6127 26.3239,26.446 21.5,24C 18.208,21.5881 17.0413,18.4214 18,14.5C 20.3333,12.1667 22.6667,9.83333 25,7.5C 25.4955,5.5273 25.6621,3.5273 25.5,1.5 Z"/></g>
<g><path style="opacity:0.998" fill="#36a874" d="M 27.5,5.5 C 30.1554,8.01678 30.1554,9.68344 27.5,10.5C 29.0497,14.172 28.5497,14.8387 26,12.5C 25.8333,12.8333 25.6667,13.1667 25.5,13.5C 27.124,14.8689 27.624,16.5355 27,18.5C 23.3005,13.2234 22.8005,13.5567 25.5,19.5C 23.8567,23.4154 22.0233,23.4154 20,19.5C 19.3333,17.8333 19.3333,16.1667 20,14.5C 23.8063,12.5321 26.3063,9.53214 27.5,5.5 Z"/></g>
<g><path style="opacity:0.998" fill="#33a06e" d="M 32.5,10.5 C 34.4945,15.3696 33.4945,19.5362 29.5,23C 27.8333,23.6667 26.1667,23.6667 24.5,23C 27.5032,21.8338 30.1698,20.1672 32.5,18C 31.8333,17.6667 31.1667,17.3333 30.5,17C 33.0782,14.8433 33.0782,13.6767 30.5,13.5C 31.1925,12.4822 31.8592,11.4822 32.5,10.5 Z"/></g>
<g><path style="opacity:0.543" fill="#120e0b" d="M 34.5,24.5 C 38.4478,24.3468 41.1144,26.0135 42.5,29.5C 39.3888,33.7851 36.0555,37.9517 32.5,42C 27.8132,43.8833 23.1465,43.7166 18.5,41.5C 16.2249,42.5983 14.0583,43.9317 12,45.5C 9.08901,44.6302 6.58901,43.1302 4.5,41C 6.70305,34.7969 10.8697,30.6302 17,28.5C 20.4119,29.866 23.9119,30.366 27.5,30C 30.02,28.3029 32.3533,26.4695 34.5,24.5 Z"/></g>
<g><path style="opacity:0.902" fill="#ad8366" d="M 33.5,33.5 C 33.6716,34.4916 33.3382,35.1583 32.5,35.5C 31.2721,33.9902 31.2721,32.4902 32.5,31C 31.8333,30.6667 31.1667,30.3333 30.5,30C 32.9199,29.9755 35.2533,29.3088 37.5,28C 35.5359,29.451 34.2026,31.2843 33.5,33.5 Z"/></g>
<g><path style="opacity:1" fill="#f0b68e" d="M 32.5,35.5 C 33.3382,35.1583 33.6716,34.4916 33.5,33.5C 35.4807,31.8564 37.4807,30.1897 39.5,28.5C 40.5827,29.365 40.7494,30.365 40,31.5C 36.8333,34.6667 33.6667,37.8333 30.5,41C 26.3701,41.6722 22.3701,41.1722 18.5,39.5C 16.2147,40.6141 14.048,41.9474 12,43.5C 9.94233,42.8883 8.10899,41.8883 6.5,40.5C 8.62294,37.7544 10.6229,34.921 12.5,32C 13.8732,31.1251 15.3732,30.6251 17,30.5C 21.4652,32.2537 25.9652,32.9204 30.5,32.5C 30.0233,33.4776 29.3567,34.3109 28.5,35C 25.7644,35.4217 23.0977,35.4217 20.5,35C 24.3127,37.8977 28.3127,38.0643 32.5,35.5 Z"/></g>
</svg>
