<svg width="80" height="75" viewBox="0 0 80 75" fill="none" xmlns="http://www.w3.org/2000/svg">
<path d="M4.14943 0.277985C3.26209 0.673661 2.68413 1.40319 2.39515 2.44514C2.04413 3.7995 2.41556 5.75893 3.88086 10.0941C5.11923 13.6997 5.16086 13.9288 5.16086 15.9295C5.16086 17.7842 5.01637 18.5343 3.96413 22.7029C3.22127 25.6417 2.74617 28.0174 2.68413 29.0601C2.49882 31.9156 2.64331 32.0401 9.82535 34.7084L13.6229 36.1469L10.4441 36.2722C8.68984 36.3554 6.62617 36.564 5.84168 36.7511C3.15841 37.3974 1.42454 38.6899 0.495557 40.7326C-0.845667 43.6713 0.681679 53.6127 3.32331 59.0738C4.7478 62.034 6.60494 63.9926 8.75188 64.8054C11.7862 65.9726 16.2441 64.7221 19.8351 61.7001L21.0735 60.6582L21.3004 62.0958C21.507 63.5343 21.9813 64.3883 22.5592 64.3883C23.0131 64.3883 24.0245 63.8046 24.8711 63.0339L25.6351 62.3258L25.8825 64.2844C26.2335 67.0566 26.9968 69.307 28.2147 71.1626C29.9486 73.7889 31.9094 74.7888 35.6245 74.9561C37.6678 75.06 37.8947 75.0188 39.587 74.3931C44.9943 72.4131 52.4253 66.2859 54.4474 62.1379C55.0049 61.0127 55.0661 60.6994 54.9837 59.6369C54.8188 57.8654 54.1372 56.7187 51.1861 53.3629C49.7616 51.7167 48.7094 50.4242 48.8539 50.4868C53.8286 52.6754 56.9445 53.7586 58.369 53.7586C59.649 53.7586 61.3821 52.5913 62.6825 50.8405C63.1159 50.2783 64.0653 48.6313 64.7878 47.1928C67.6776 41.6072 68.689 40.5653 73.56 38.0436C78.4522 35.5014 80 34.0003 80 31.8332C80 29.7278 78.3078 28.2902 74.551 27.2062C68.9371 25.5601 60.227 26.2055 53.1682 28.8112C49.2466 30.2496 44.5821 32.3962 40.1853 34.7513C38.5339 35.6267 37.1102 36.3769 37.0278 36.4189C36.6564 36.5854 36.9037 35.752 37.3788 35.1684C37.6474 34.8354 37.9976 34.1891 38.1217 33.7299C38.3282 33.0425 38.3282 32.7919 38.0392 32.2082L37.7086 31.4993L39.6074 29.8317C42.2286 27.5178 43.2817 26.6844 45.6139 25.1215C47.9053 23.5792 49.6596 22.8291 50.6294 22.975C51.5168 23.1209 52.0327 22.7252 51.8474 22.0163C51.7445 21.5992 51.5584 21.4327 51.0008 21.3288C48.6686 20.8911 43.8596 23.7671 37.8735 29.1863L36.3045 30.6033L36.1804 27.8525C36.0155 24.3722 35.3755 20.0371 34.7151 17.8485C33.8074 14.8471 32.2792 12.8671 31.351 13.4507C30.7323 13.8258 30.7935 14.4927 31.4539 14.9724C31.7845 15.2016 32.2588 15.8058 32.4857 16.3268C33.4351 18.3274 34.2817 23.017 34.5086 27.4354L34.6531 29.8944L33.8286 29.9158C33.3747 29.9364 32.7968 30.0617 32.5494 30.187C31.951 30.5208 31.311 31.9585 31.2906 32.9592C31.2906 34.2303 30.9396 34.0432 30.4857 32.5215C30.2384 31.7293 30.0523 30.9792 30.0523 30.8539C30.0523 29.7905 26.9976 21.7665 24.9747 17.5987C22.0645 11.5127 18.4319 6.90721 13.7674 3.36343C10.2792 0.715699 6.15106 -0.618057 4.14943 0.277985ZM6.97637 1.88294C8.37963 2.17475 10.6711 3.23731 12.2604 4.34191C15.0466 6.23869 18.9886 10.5112 21.0735 13.8456C23.5298 17.8064 26.667 25.2262 28.5037 31.4161L29.5772 35.0423L28.9788 36.2507C28.298 37.6471 27.7821 39.8151 27.7821 41.4193C27.7821 42.4818 27.72 42.5865 26.6678 43.7117C24.7486 45.775 24.1086 46.7757 23.4686 48.8176C22.7878 50.9856 21.8792 54.9448 21.6939 56.6751C21.5494 57.7796 21.4874 57.8843 19.836 59.4885C17.3388 61.9483 14.6964 63.3653 12.0343 63.6777C8.91759 64.0528 6.06943 61.7183 4.35596 57.4458C2.84902 53.6959 1.73392 48.3395 1.69311 44.6927C1.6727 42.6088 1.71351 42.2955 2.18862 41.3583C2.80739 40.1696 4.1078 39.1688 5.75923 38.6067C7.1829 38.1483 15.1086 37.9604 17.627 38.3355C19.1339 38.5646 19.4017 38.544 19.6702 38.2728C20.578 37.3553 19.3396 36.6472 12.1984 33.9583C6.378 31.7697 4.83025 31.1028 4.52004 30.6857C3.98372 29.9768 4.2727 28.2053 5.9029 21.8695C7.3478 16.2839 7.26535 14.5124 5.2629 8.98946C4.04494 5.63363 3.69392 3.86215 4.04494 2.79959C4.41719 1.69582 5.07759 1.48727 6.97637 1.88294ZM70.32 28.1229C72.6735 28.352 74.778 28.9151 76.3878 29.7278C77.7706 30.4368 78.1012 30.7698 78.2661 31.6032C78.5551 33.1035 76.6147 34.8337 72.4049 36.8138C67.9878 38.8779 66.3363 40.6073 63.2612 46.4847C62.4767 47.9858 61.5478 49.59 61.1763 50.0491C60.2474 51.2576 59.009 52.091 58.2245 52.091C57.1927 52.091 55.067 51.3615 51.1037 49.6526C44.9535 46.9851 44.0449 46.7139 43.467 47.4014C43.0335 47.9224 43.4466 48.506 44.8906 49.4235C46.9755 50.7572 52.6719 57.1977 53.1257 58.74C53.4972 59.9493 53.4351 60.3656 52.7127 61.762C50.9992 65.0131 44.3535 70.4528 39.4621 72.5994C38.1208 73.183 37.8106 73.2456 35.8294 73.2242C32.0727 73.2036 30.2359 72.0776 28.7086 68.8685C27.7592 66.8472 27.3674 65.2835 27.2229 62.6992L27.0988 60.49L28.3372 58.6353C30.071 56.009 31.5984 53.4041 32.3617 51.7571C32.96 50.4654 33.0221 50.1101 33.1249 47.6306L33.249 44.9004L34.3225 43.5872C35.4164 42.2114 36.5723 40.0855 36.7788 39.0229C36.8817 38.4599 37.2743 38.1895 40.8449 36.2928C46.9543 33.0416 53.7445 30.1656 57.6457 29.1854C61.8367 28.1443 66.5012 27.7478 70.32 28.1229ZM35.7894 32.2915C36.2849 32.646 36.6564 33.0837 36.6564 33.3128C36.6564 33.542 36.3257 34.105 35.9339 34.584C35.2531 35.4173 35.2115 35.522 35.2115 37.0849C35.2115 38.502 35.129 38.8564 34.489 40.149C34.0972 40.9403 33.3127 42.129 32.7551 42.7753C31.5992 44.109 31.5372 44.297 31.4343 47.6108C31.3723 49.7573 31.3102 50.0079 30.609 51.4043C29.7004 53.2178 27.8433 56.3231 26.6253 58.0945C26.1298 58.8241 25.7176 59.4489 25.7176 59.533C25.7176 59.8874 23.2825 62.7215 22.9723 62.7215C22.4768 62.7215 23.4466 56.0519 24.5821 51.5296C25.4286 48.1738 25.9649 47.1112 27.4719 45.6316C29.2057 43.9227 29.4743 43.3812 29.6596 41.1711C29.8866 38.483 30.4229 37.1072 31.8057 35.6061C32.7755 34.5221 32.9412 34.2303 32.9412 33.5428C32.9412 33.0845 33.0441 32.4794 33.1886 32.1885C33.5396 31.4161 34.6751 31.4581 35.7894 32.2915Z" fill="#3F51B5"/>
<path d="M6.97637 1.88294C8.37963 2.17475 10.6711 3.23731 12.2604 4.34191C15.0466 6.23869 18.9886 10.5112 21.0735 13.8456C23.5298 17.8064 26.667 25.2262 28.5037 31.4161L29.5772 35.0423L28.9788 36.2507C28.298 37.6471 27.7821 39.8151 27.7821 41.4193C27.7821 42.4818 27.72 42.5865 26.6678 43.7117C24.7486 45.775 24.1086 46.7757 23.4686 48.8176C22.7878 50.9856 21.8792 54.9448 21.6939 56.6751C21.5494 57.7796 21.4874 57.8843 19.836 59.4885C17.3388 61.9483 14.6964 63.3653 12.0343 63.6777C8.91759 64.0528 6.06943 61.7183 4.35596 57.4458C2.84902 53.6959 1.73392 48.3395 1.69311 44.6927C1.6727 42.6088 1.71351 42.2955 2.18862 41.3583C2.80739 40.1696 4.1078 39.1688 5.75923 38.6067C7.1829 38.1483 15.1086 37.9604 17.627 38.3355C19.1339 38.5646 19.4017 38.544 19.6702 38.2728C20.578 37.3553 19.3396 36.6472 12.1984 33.9583C6.378 31.7697 4.83025 31.1028 4.52004 30.6857C3.98372 29.9768 4.2727 28.2053 5.9029 21.8695C7.3478 16.2839 7.26535 14.5124 5.2629 8.98946C4.04494 5.63363 3.69392 3.86215 4.04494 2.79959C4.41719 1.69582 5.07759 1.48727 6.97637 1.88294Z" fill="#3F51B5"/>
<path d="M70.32 28.1229C72.6735 28.352 74.778 28.9151 76.3878 29.7278C77.7706 30.4368 78.1012 30.7698 78.2661 31.6032C78.5551 33.1035 76.6147 34.8337 72.4049 36.8138C67.9878 38.8779 66.3363 40.6073 63.2612 46.4847C62.4767 47.9858 61.5478 49.59 61.1763 50.0491C60.2474 51.2576 59.009 52.091 58.2245 52.091C57.1927 52.091 55.067 51.3615 51.1037 49.6526C44.9535 46.9851 44.0449 46.7139 43.467 47.4014C43.0335 47.9224 43.4466 48.506 44.8906 49.4235C46.9755 50.7572 52.6719 57.1977 53.1257 58.74C53.4972 59.9493 53.4351 60.3656 52.7127 61.762C50.9992 65.0131 44.3535 70.4528 39.4621 72.5994C38.1208 73.183 37.8106 73.2456 35.8294 73.2242C32.0727 73.2036 30.2359 72.0776 28.7086 68.8685C27.7592 66.8472 27.3674 65.2835 27.2229 62.6992L27.0988 60.49L28.3372 58.6353C30.071 56.009 31.5984 53.4041 32.3617 51.7571C32.96 50.4654 33.0221 50.1101 33.1249 47.6306L33.249 44.9004L34.3225 43.5872C35.4164 42.2114 36.5723 40.0855 36.7788 39.0229C36.8817 38.4599 37.2743 38.1895 40.8449 36.2928C46.9543 33.0416 53.7445 30.1656 57.6457 29.1854C61.8367 28.1443 66.5012 27.7478 70.32 28.1229Z" fill="#3F51B5"/>
</svg>
